<?xml version="1.0" encoding="UTF-8" standalone="no"?>
<!-- Created with Inkscape (http://www.inkscape.org/) -->

<svg
   width="109.62162mm"
   height="26.176329mm"
   viewBox="0 0 109.62162 26.17633"
   version="1.1"
   id="svg5"
   xml:space="preserve"
   inkscape:version="1.2.2 (732a01da63, 2022-12-09)"
   sodipodi:docname="new_logo_02.svg"
   inkscape:export-filename="..\..\..\front-end\public\DigitalCertLogo.png"
   inkscape:export-xdpi="300"
   inkscape:export-ydpi="300"
   xmlns:inkscape="http://www.inkscape.org/namespaces/inkscape"
   xmlns:sodipodi="http://sodipodi.sourceforge.net/DTD/sodipodi-0.dtd"
   xmlns="http://www.w3.org/2000/svg"
   xmlns:svg="http://www.w3.org/2000/svg"><sodipodi:namedview
     id="namedview7"
     pagecolor="#ffffff"
     bordercolor="#000000"
     borderopacity="0.25"
     inkscape:showpageshadow="2"
     inkscape:pageopacity="0.0"
     inkscape:pagecheckerboard="0"
     inkscape:deskcolor="#d1d1d1"
     inkscape:document-units="mm"
     showgrid="false"
     inkscape:zoom="1.4142136"
     inkscape:cx="61.51829"
     inkscape:cy="135.7645"
     inkscape:window-width="1920"
     inkscape:window-height="974"
     inkscape:window-x="-11"
     inkscape:window-y="1249"
     inkscape:window-maximized="1"
     inkscape:current-layer="layer1"
     showguides="true" /><defs
     id="defs2" /><g
     inkscape:label="Layer 1"
     inkscape:groupmode="layer"
     id="layer1"
     transform="translate(-81.07815,-147.09337)"><circle
       style="fill:none;fill-opacity:1;fill-rule:evenodd;stroke:none;stroke-width:1.70082;stroke-dasharray:none;stroke-opacity:1"
       id="path6474-1-06"
       cx="-152.84247"
       cy="97.662704"
       r="41.64959"
       transform="rotate(-92.265948)" /><g
       id="g21283"><path
         fill="#343434"
         d="m 87.684335,164.59988 0.141997,0.14173 6.500968,-3.8427 -6.457186,-10.69912 c 0,0 -0.305036,12.11163 -0.185779,14.40009 z"
         id="path689"
         style="fill:#b8faf6;fill-opacity:1;stroke:#d0d0f3;stroke-width:0.22769;stroke-dasharray:none;stroke-opacity:1"
         sodipodi:nodetypes="ccccc" /><path
         fill="#8c8c8c"
         d="m 87.755333,164.67075 -0.09485,-14.45951 -6.335059,10.68769 z"
         id="path691"
         style="fill:#efcdc3;fill-opacity:1;stroke:#d0d0f3;stroke-width:0.22769;stroke-dasharray:none;stroke-opacity:1"
         sodipodi:nodetypes="cccc" /><path
         fill="#3c3c3b"
         d="m 87.826383,171.29264 6.504048,-9.16051 -6.5033,3.8859 -0.07999,0.0987 c 0.172268,1.73364 0.07013,4.94244 0.07013,4.94244 z"
         id="path693"
         style="fill:#c9b3f4;fill-opacity:1;stroke:#d0d0f3;stroke-width:0.228996;stroke-dasharray:none;stroke-opacity:1"
         sodipodi:nodetypes="cccccc" /><path
         fill="#8c8c8c"
         d="m 81.325415,162.13169 6.420775,9.02266 0.08019,-5.18189 z"
         id="path695"
         style="fill:#efcdc3;fill-opacity:1;stroke:#d0d0f3;stroke-width:0.22769;stroke-dasharray:none;stroke-opacity:1"
         sodipodi:nodetypes="cccc" /><path
         fill="#141414"
         d="m 87.826332,157.94412 0.08525,6.7471 6.415616,-3.79223 z"
         id="path697"
         style="fill:#c9b3f4;fill-opacity:1;stroke:#d0d0f3;stroke-width:0.22769;stroke-dasharray:none;stroke-opacity:1"
         sodipodi:nodetypes="cccc" /><path
         fill="#393939"
         d="m 87.712487,157.9806 -6.387072,2.91833 6.35892,3.70095 z"
         id="path699"
         style="fill:#88aaf1;fill-opacity:1;stroke:#d0d0f3;stroke-width:0.22769;stroke-dasharray:none;stroke-opacity:1"
         sodipodi:nodetypes="cccc" /></g><g
       id="g11593"
       transform="matrix(1.8477165,0,0,1.8477165,-95.099056,-138.72367)"
       style="fill:#f9f9f9"><g
         id="g14588"
         transform="matrix(1.1842107,0,0,1.1842107,-20.150027,-27.140563)"
         style="fill:#f9f9f9"><path
           d="m 113.15842,156.37242 q -0.44098,0 -0.7221,-0.25908 -0.28112,-0.26458 -0.28112,-0.64492 0,-0.39136 0.28112,-0.63941 0.28112,-0.24805 0.7221,-0.24805 0.44648,0 0.72209,0.24805 0.28112,0.24805 0.28112,0.63941 0,0.39688 -0.28112,0.65044 -0.27561,0.25356 -0.72209,0.25356 z m 0.85989,6.53742 h -1.74184 v -5.64445 h 1.74184 z"
           id="path10818"
           style="font-weight:bold;font-size:11.2889px;font-family:Gadugi;-inkscape-font-specification:'Gadugi, Bold';fill:#f9f9f9;fill-rule:evenodd;stroke-width:1.3" /><path
           d="m 117.24844,162.25389 h -0.0221 v 3.25217 h -1.74184 v -8.24067 h 1.74184 v 0.84887 h 0.0221 q 0.64492,-0.98668 1.8135,-0.98668 1.09692,0 1.69223,0.75517 0.60083,0.74965 0.60083,2.04501 0,1.41111 -0.70005,2.2655 -0.69453,0.85438 -1.85208,0.85438 -1.01975,0 -1.55443,-0.79375 z m -0.0496,-2.31511 v 0.452 q 0,0.58429 0.30868,0.9536 0.30868,0.36932 0.81029,0.36932 0.59531,0 0.92053,-0.45751 0.33073,-0.46302 0.33073,-1.30638 0,-1.48829 -1.15756,-1.48829 -0.53468,0 -0.87643,0.4079 -0.33624,0.40239 -0.33624,1.06936 z"
           id="path10820"
           style="font-weight:bold;font-size:11.2889px;font-family:Gadugi;-inkscape-font-specification:'Gadugi, Bold';fill:#f9f9f9;fill-rule:evenodd;stroke-width:1.3" /><path
           d="m 124.22683,163.04764 h -1.74184 v -8.35644 h 1.74184 z"
           id="path10822"
           style="font-weight:bold;font-size:11.2889px;font-family:Gadugi;-inkscape-font-specification:'Gadugi, Bold';fill:#f9f9f9;fill-rule:evenodd;stroke-width:1.3" /><path
           d="m 128.383,163.04764 q -1.41112,0 -2.2214,-0.78824 -0.80478,-0.79375 -0.80478,-2.14974 0,-1.40009 0.83785,-2.18833 0.83785,-0.79375 2.2655,-0.79375 1.4056,0 2.20486,0.79375 0.79926,0.78824 0.79926,2.08911 0,1.4056 -0.82682,2.2214 -0.82131,0.8158 -2.25447,0.8158 z m 0.0441,-4.58612 q -0.61736,0 -0.95911,0.42444 -0.34176,0.42444 -0.34176,1.20165 0,1.62609 1.3119,1.62609 1.25126,0 1.25126,-1.67019 0,-1.58199 -1.26229,-1.58199 z"
           id="path10824"
           style="font-weight:bold;font-size:11.2889px;font-family:Gadugi;-inkscape-font-specification:'Gadugi, Bold';fill:#f9f9f9;fill-rule:evenodd;stroke-width:1.3" /><path
           d="m 141.55705,162.90984 h -1.73633 v -3.2191 q 0,-1.22922 -0.90399,-1.22922 -0.42995,0 -0.70004,0.36932 -0.2701,0.36931 -0.2701,0.92053 v 3.15847 h -1.74184 v -3.25218 q 0,-1.19614 -0.88746,-1.19614 -0.44648,0 -0.71658,0.35278 -0.26458,0.35278 -0.26458,0.95912 v 3.13642 h -1.74185 v -5.64445 h 1.74185 v 0.88194 h 0.0221 q 0.27009,-0.452 0.75516,-0.73312 0.49058,-0.28663 1.06936,-0.28663 1.19614,0 1.63711,1.05282 0.64492,-1.05282 1.89618,-1.05282 1.84106,0 1.84106,2.27101 z"
           id="path10826"
           style="font-weight:bold;font-size:11.2889px;font-family:Gadugi;-inkscape-font-specification:'Gadugi, Bold';fill:#f9f9f9;fill-rule:evenodd;stroke-width:1.3" /><path
           d="m 147.63145,162.90984 h -1.64813 v -0.81029 h -0.022 q -0.56775,0.94809 -1.68121,0.94809 -0.82131,0 -1.29536,-0.46302 -0.46853,-0.46853 -0.46853,-1.24575 0,-1.64262 1.94579,-1.89618 l 1.53238,-0.20395 q 0,-0.92604 -1.00321,-0.92604 -1.00873,0 -1.91823,0.60082 v -1.31189 q 0.3638,-0.18742 0.99219,-0.33073 0.63389,-0.14332 1.15204,-0.14332 2.41432,0 2.41432,2.40881 z m -1.63711,-2.29306 v -0.38034 l -1.02526,0.13229 q -0.84887,0.11024 -0.84887,0.76619 0,0.29766 0.20395,0.49058 0.20946,0.18742 0.56224,0.18742 0.49058,0 0.79926,-0.33625 0.30868,-0.34175 0.30868,-0.85989 z"
           id="path10828"
           style="font-weight:bold;font-size:11.2889px;font-family:Gadugi;-inkscape-font-specification:'Gadugi, Bold';fill:#f9f9f9;fill-rule:evenodd;stroke-width:1.3" /><text
           xml:space="preserve"
           style="font-style:normal;font-variant:normal;font-weight:normal;font-stretch:normal;font-size:3.03214px;font-family:Gadugi;-inkscape-font-specification:'Gadugi, Normal';font-variant-ligatures:normal;font-variant-caps:normal;font-variant-numeric:normal;font-variant-east-asian:normal;text-align:start;text-anchor:start;fill:#f9f9f9;fill-opacity:1;fill-rule:evenodd;stroke:none;stroke-width:0.620751;stroke-dasharray:none;stroke-opacity:1"
           x="105.75594"
           y="184.41528"
           id="text8699"
           transform="scale(1.1841708,0.84447278)"><tspan
             sodipodi:role="line"
             id="tspan8697"
             style="font-style:normal;font-variant:normal;font-weight:normal;font-stretch:normal;font-size:3.03214px;font-family:Gadugi;-inkscape-font-specification:'Gadugi, Normal';font-variant-ligatures:normal;font-variant-caps:normal;font-variant-numeric:normal;font-variant-east-asian:normal;fill:#f9f9f9;fill-opacity:1;stroke-width:0.620751"
             x="105.75594"
             y="184.41528">BLOCKCHAIN</tspan></text></g></g><path
       id="path9000"
       style="color:#000000;-inkscape-font-specification:'Century Gothic, Normal';fill:#f9f9f9;stroke:none;stroke-width:0.0499403;stroke-dasharray:none;stroke-opacity:1"
       d="m 91.465706,168.9504 h 0.819332 6.880446 c 2.773486,0 4.988596,-0.36714 6.658056,-1.19193 1.64167,-0.80622 2.97392,-2.0678 3.96986,-3.71626 l 0.006,-0.006 0.004,-0.004 c 1.01733,-1.67303 1.51577,-3.60891 1.51577,-5.75484 0,-2.47803 -0.62956,-4.67232 -1.90983,-6.51175 l -0.002,-0.002 -0.002,-0.002 c -1.26926,-1.83563 -3.07306,-3.15132 -5.31982,-3.89183 -1.6395,-0.54773 -4.03959,-0.77642 -7.317421,-0.77642 l -5.252648,0.05 0.04975,6.87905 3.513373,5.82144 v -9.27973 -0.0507 l 0.807669,2e-5 c 3.075078,0 5.274837,0.20742 6.480527,0.55207 1.66582,0.47617 2.91285,1.32521 3.83331,2.59261 0.92091,1.26798 1.38897,2.79434 1.38897,4.64679 0,1.76391 -0.43202,3.20016 -1.27387,4.37368 h -0.002 c -0.8457,1.16954 -1.97123,1.96 -3.4607,2.41508 -0.98526,0.29771 -3.036319,0.49159 -5.994783,0.49159 h -1.779123 v -1.74442 z"
       sodipodi:nodetypes="ccsccccscccccccccccccscccsccc" /></g></svg>
